<svg width="80" height="80" viewBox="0 0 80 80" fill="none" xmlns="http://www.w3.org/2000/svg">
<path fill-rule="evenodd" clip-rule="evenodd" d="M80 40C80 45.2529 78.9654 50.4543 76.9552 55.3073C74.945 60.1604 71.9986 64.5699 68.2843 68.2843C64.5699 71.9986 60.1604 74.945 55.3073 76.9552C50.4543 78.9654 45.2529 80 40 80C34.7471 80 29.5457 78.9654 24.6927 76.9552C19.8396 74.945 15.4301 71.9986 11.7157 68.2843C8.00138 64.5699 5.05501 60.1604 3.04482 55.3073C1.03463 50.4543 -7.82739e-08 45.2529 0 40C1.58081e-07 29.3913 4.21427 19.2172 11.7157 11.7157C19.2172 4.21427 29.3913 0 40 0C50.6087 0 60.7828 4.21427 68.2843 11.7157C75.7857 19.2172 80 29.3913 80 40ZM25.3022 25.52L59.2444 34.6889L60.7422 28.1911L26.7956 19.0222L25.3022 25.52ZM49.8622 11.9644L48.0578 19.8489L41.6222 18.1067L43.4311 10.2222L49.8622 11.9644ZM36.5644 69.7778L38.3778 61.8933L31.9422 60.1556L30.1289 68.04L36.5644 69.7778ZM56.2133 47.8489L22.2711 38.6667L23.7644 32.1689L57.7067 41.3511L56.2133 47.8489ZM19.2533 51.8044L53.2 60.9778L54.6933 54.48L20.7467 45.3067L19.2533 51.8044Z" fill="#FF6106"/>
</svg>
